<?xml version="1.0" standalone="no"?><!DOCTYPE svg PUBLIC "-//W3C//DTD SVG 1.1//EN" "http://www.w3.org/Graphics/SVG/1.1/DTD/svg11.dtd"><svg t="1481254589948" class="icon" style="" viewBox="0 0 1024 1024" version="1.1" xmlns="http://www.w3.org/2000/svg" p-id="1487" xmlns:xlink="http://www.w3.org/1999/xlink" width="200" height="200"><defs><style type="text/css"></style></defs><path d="M300.552192 796.585984q0 30.283776-21.4272 51.710976t-51.710976 21.4272q-29.712384 0-51.42528-21.712896t-21.712896-51.42528q0-30.283776 21.4272-51.710976t51.710976-21.4272 51.710976 21.4272 21.4272 51.710976zm284.553216 117.706752q0 30.283776-21.4272 51.710976t-51.710976 21.4272-51.710976-21.4272-21.4272-51.710976 21.4272-51.710976 51.710976-21.4272 51.710976 21.4272 21.4272 51.710976zm-402.259968-402.259968q0 30.283776-21.4272 51.710976t-51.710976 21.4272-51.710976-21.4272-21.4272-51.710976 21.4272-51.710976 51.710976-21.4272 51.710976 21.4272 21.4272 51.710976zm686.813184 284.553216q0 29.712384-21.712896 51.42528t-51.42528 21.712896q-30.283776 0-51.710976-21.4272t-21.4272-51.710976 21.4272-51.710976 51.710976-21.4272 51.710976 21.4272 21.4272 51.710976zm-550.821888-569.106432q0 37.711872-26.855424 64.567296t-64.567296 26.855424-64.567296-26.855424-26.855424-64.567296 26.855424-64.567296 64.567296-26.855424 64.567296 26.855424 26.855424 64.567296zm668.52864 284.553216q0 30.283776-21.4272 51.710976t-51.710976 21.4272-51.710976-21.4272-21.4272-51.710976 21.4272-51.710976 51.710976-21.4272 51.710976 21.4272 21.4272 51.710976zm-365.69088-402.259968q0 45.71136-31.997952 77.709312t-77.709312 31.997952-77.709312-31.997952-31.997952-77.709312 31.997952-77.709312 77.709312-31.997952 77.709312 31.997952 31.997952 77.709312zm302.83776 117.706752q0 53.139456-37.711872 90.565632t-90.279936 37.426176q-53.139456 0-90.565632-37.426176t-37.426176-90.565632q0-52.568064 37.426176-90.279936t90.565632-37.711872q52.568064 0 90.279936 37.711872t37.711872 90.279936z" p-id="1488"></path></svg>