<?xml version="1.0" standalone="no"?><!DOCTYPE svg PUBLIC "-//W3C//DTD SVG 1.1//EN" "http://www.w3.org/Graphics/SVG/1.1/DTD/svg11.dtd"><svg t="1481262381455" class="icon" style="" viewBox="0 0 1024 1024" version="1.1" xmlns="http://www.w3.org/2000/svg" p-id="1621" xmlns:xlink="http://www.w3.org/1999/xlink" width="200" height="200"><defs><style type="text/css"></style></defs><path d="M896 128h-768c-70.4 0-128 57.6-128 128v512c0 70.4 57.6 128 128 128h768c70.4 0 128-57.6 128-128V256c0-70.4-57.6-128-128-128m-768 64h768c25.6 0 51.2 12.8 57.6 38.4l-441.6 294.4-441.6-294.4c6.4-25.6 32-38.4 57.6-38.4m768 640h-768c-38.4 0-64-25.6-64-64V300.8l428.8 288c6.4 6.4 12.8 6.4 19.2 6.4s12.8 0 19.2-6.4l428.8-288V768c0 38.4-25.6 64-64 64" fill="" p-id="1622"></path></svg>